<?xml version="1.0" encoding="utf-8"?>
<!-- Generator: Adobe Illustrator 25.0.1, SVG Export Plug-In . SVG Version: 6.00 Build 0)  -->
<svg version="1.0" id="Layer_1" xmlns="http://www.w3.org/2000/svg" xmlns:xlink="http://www.w3.org/1999/xlink" x="0px" y="0px"
	 viewBox="0 0 230 150" style="enable-background:new 0 0 230 150;" xml:space="preserve">
<style type="text/css">
	.st0{fill:#662677;}
	.st1{fill:url(#Path_1353_1_);}
	.st2{fill:url(#Path_1354_1_);}
	.st3{fill:#361749;}
	.st4{fill:#FFFFFF;}
	.st5{fill:#874091;}
	.st6{fill:none;}
</style>
<g id="Group_579">
	<g id="Group_576">
		<g id="Group_575">
			<path id="Rectangle_382" class="st0" d="M30.6,54h33.7c2.3,0,4.2,1.9,4.2,4.2v33.7c0,2.3-1.9,4.2-4.2,4.2H30.6
				c-2.3,0-4.2-1.9-4.2-4.2V58.2C26.5,55.9,28.4,54,30.6,54z"/>
			
				<radialGradient id="Path_1353_1_" cx="-398.4845" cy="400.1099" r="1.05" gradientTransform="matrix(0 24.62 -31.62 0 12699.5703 9850.75)" gradientUnits="userSpaceOnUse">
				<stop  offset="0.82" style="stop-color:#874091"/>
				<stop  offset="0.89" style="stop-color:#662677"/>
			</radialGradient>
			<path id="Path_1353" class="st1" d="M64.4,54c2.2,0,4.1,1.8,4.1,4.1v13.8c0,1.3-1.1,2.4-2.4,2.4c0,0,0,0,0,0H28.9
				c-1.3,0-2.4-1.1-2.4-2.4l0,0V58.1c0-2.2,1.8-4.1,4.1-4.1h0H64.4z"/>
			
				<radialGradient id="Path_1354_1_" cx="-413.1355" cy="368.3523" r="1.05" gradientTransform="matrix(0 -24.62 31.57 0 -2361.5691 -6294.8306)" gradientUnits="userSpaceOnUse">
				<stop  offset="0.82" style="stop-color:#461D5C"/>
				<stop  offset="0.89" style="stop-color:#662677"/>
			</radialGradient>
			<path id="Path_1354" class="st2" d="M30.6,96c-2.2,0-4.1-1.8-4.1-4.1l0,0V78.2c0-1.3,1.1-2.4,2.4-2.4c0,0,0,0,0,0h37.1
				c1.3,0,2.4,1.1,2.4,2.4c0,0,0,0,0,0v13.8c0,2.2-1.8,4.1-4.1,4.1H30.6z"/>
			<path id="Rectangle_383" class="st0" d="M30.5,55.3h33.9c1.5,0,2.7,1.2,2.7,2.7v33.9c0,1.5-1.2,2.7-2.7,2.7H30.5
				c-1.5,0-2.7-1.2-2.7-2.7V58C27.8,56.5,29,55.3,30.5,55.3z"/>
		</g>
		<path id="Path_1355" class="st3" d="M53.7,85.8l-8.2,2.3c-0.7,0.2-1.4-0.2-1.6-0.9l-6.2-21.4c-0.2-0.7,0.2-1.4,0.9-1.6
			c0,0,0,0,0,0l8.4-2.4c1.9-0.6,4.1,0,5.4,1.5c2.2,2.3,2.2,6-0.1,8.2c0,0,0,0,0,0l-0.2,0.2c3.9,0.3,6.9,3.7,6.6,7.6
			C58.6,82.4,56.5,84.9,53.7,85.8L53.7,85.8z"/>
		<path id="Path_1356" class="st4" d="M54.9,70.8c1.4-2.6,1-5.8-0.9-8.1c-1.8-2.1-4.7-3-7.4-2.3l-8.7,2.5c-1.4,0.4-2.2,1.8-1.8,3.2
			l0,0L42.5,88c0.4,1.4,1.8,2.2,3.2,1.8c0,0,0,0,0,0l0,0l8.7-2.5c3.1-1.1,5.4-3.7,6-7C61,76.2,58.7,72.3,54.9,70.8z M53.7,85.8
			l-8.2,2.4c-0.7,0.2-1.4-0.2-1.6-0.9l-6.2-21.4c-0.2-0.7,0.2-1.4,0.9-1.6l0,0l8.5-2.4c1.9-0.6,4,0,5.4,1.5c2.2,2.3,2.2,6-0.1,8.2
			c0,0,0,0,0,0l-0.2,0.2c3.9,0.2,6.9,3.6,6.7,7.6C58.6,82.4,56.6,85,53.7,85.8L53.7,85.8z"/>
		<path id="Path_1357" class="st0" d="M56.2,80.1c0-3.6-2.9-6.6-6.5-6.6c2.3-2,2.6-5.6,0.6-7.9c0,0,0,0,0,0l-0.1-0.1
			c-1.3-1.5-3.4-2.1-5.3-1.6l-7.1,2l6.2,21.4c0.2,0.7,0.9,1.1,1.6,0.9l5.8-1.7h0.1C54.3,85.7,56.2,83.1,56.2,80.1L56.2,80.1z"/>
	</g>
	<g id="Group_578">
		<path id="Path_1358" class="st0" d="M159.8,90.2c-7.1,0-11.2-4.3-11.2-12.8V63.1c0-2.1,1.2-3.3,2.9-3.3s2.9,1.2,2.9,3.3V77
			c0,5.7,1.9,7.5,5.4,7.5s5.4-1.8,5.4-7.5V63.1c0-2.1,1.2-3.3,2.9-3.3s2.9,1.2,2.9,3.3v14.4C171,86,166.9,90.2,159.8,90.2
			L159.8,90.2z M94.8,74.1c2.2-1.3,3.6-3.7,3.7-6.3c0-5-3.5-8.5-10.6-8.5h-8c-1.5-0.1-2.8,1-2.9,2.5c0,0.1,0,0.2,0,0.3v25.4
			c-0.1,1.5,1.1,2.8,2.6,2.9h0.3l8,0.1c9.2,0.1,12.2-3.9,12.2-8.7c0-3.4-2.1-6.4-5.2-7.5C94.8,74.3,94.8,74.2,94.8,74.1
			C94.8,74.2,94.8,74.2,94.8,74.1L94.8,74.1z M114,72.3l-6.5-10.8c-0.4-1-1.4-1.7-2.5-1.7c-1.5-0.1-2.8,1-3,2.5c0,0,0,0.1,0,0.1v0.1
			c0,0.9,0.3,1.7,0.8,2.4l8.3,13.4V87c0,2.1,1.3,3.3,2.9,3.3c1.7,0,2.9-1.2,2.9-3.3v-8.9l8.3-13.4c0.5-0.7,0.8-1.5,0.8-2.4
			c-0.1-1.5-1.3-2.7-2.9-2.6c0,0,0,0,0,0h-0.1c-1.1,0-2.1,0.7-2.6,1.7L114,72.3z M177.2,70.4c0.9,0,1.7-0.6,2-1.4
			c0.8-2,1.4-4.1,1.5-6.2c0-1.9-0.9-3.1-3-3.1s-3,1.4-3,4V66C174.8,68.9,175.6,70.5,177.2,70.4L177.2,70.4z M123.4,82.3
			c0,2.8,2.4,8,9.2,8c6.8,0,10.1-4,10.1-11.1v-16c0-2.1-1.2-3.3-2.9-3.3s-2.9,1.2-2.9,3.3v16.1c0,3.7-1.2,5.4-4.1,5.4
			c-4.9,0.1-2.8-5.1-6.2-5.4c-1.6-0.2-2.9,0.9-3.1,2.5C123.4,82,123.4,82.1,123.4,82.3L123.4,82.3z M89.7,71.4
			c-1.9,0.4-3.1,1.1-3.1,2.9s1.2,2.8,3.1,3.1c3.3,0.4,4.4,1.5,4.4,4c0,2.3-1.9,3.5-5.5,3.5h-5.9V64.6H89c1.8-0.2,3.4,1.1,3.6,3
			c0,0.2,0,0.4,0,0.7C92.6,70.2,91.5,71.1,89.7,71.4z M188,82.6c-0.6-0.9-1.6-1.5-2.7-1.7c-1.5-0.1-2.7,1.1-2.8,2.5
			c0,0.1,0,0.2,0,0.3c0.1,1,0.4,1.9,1.1,2.6c2.4,2.9,6,4.5,9.8,4.4c5.4,0,10-3.1,10-8.5c0-10.7-14.2-9.6-14.2-14.4
			c0-1.8,1.2-2.9,3.3-2.9c1.4-0.1,2.7,0.3,3.8,1.2c1,0.8,1.9,2.4,3.6,2.4c1.4,0.1,2.6-1,2.7-2.4c0,0,0,0,0,0l0,0
			c0-2.1-2.1-4.1-3.9-5.1c-1.9-1.1-4.1-1.6-6.3-1.6c-4.6,0.1-9.1,2.6-9.1,8.5c0,9.6,14.2,7.9,14.2,14c0,2.2-1.7,3.3-4.2,3.3
			C191.4,85.1,189.4,84.2,188,82.6L188,82.6z"/>
		<g id="Group_577">
			<path id="Path_1359" class="st5" d="M151.5,60.3c1.7,0,2.9,1.2,2.9,3.3v-0.5c0-2.1-1.2-3.3-2.9-3.3s-2.9,1.2-2.9,3.3v0.5
				C148.6,61.6,149.8,60.3,151.5,60.3z"/>
			<path id="Path_1360" class="st5" d="M154.4,77.6c0,5.7,1.9,7.5,5.4,7.5s5.4-1.8,5.4-7.5V77c0,5.7-1.9,7.5-5.4,7.5
				s-5.4-1.8-5.4-7.5V77.6z"/>
			<path id="Path_1361" class="st5" d="M189.4,68c0,0.1,0,0.2,0,0.3c0,4.7,13.9,3.7,14.2,14.1c0-0.1,0-0.2,0-0.2
				C203.5,71.6,189.8,72.5,189.4,68z"/>
			<path id="Path_1362" class="st5" d="M105,60.3c1.1,0,2.1,0.7,2.6,1.7l6.4,10.8l6.5-10.8c0.4-1,1.4-1.7,2.6-1.7
				c1.5-0.1,2.7,1,2.9,2.4c0-0.1,0-0.2,0-0.3c-0.1-1.5-1.3-2.7-2.9-2.6h-0.1c-1.1,0-2.1,0.7-2.6,1.7L114,72.3l-6.4-10.8
				c-0.4-1-1.4-1.7-2.6-1.7c-1.5-0.1-2.8,1-3,2.5c0,0,0,0.1,0,0.1v0.1c0,0.1,0,0.2,0,0.3C102.2,61.2,103.5,60.2,105,60.3z"/>
			<path id="Path_1363" class="st5" d="M185.4,81.4c1.1,0.2,2.1,0.8,2.7,1.7c1.4,1.6,3.3,2.5,5.4,2.5c2.5,0,4.2-1.1,4.2-3.3
				c0-0.1,0-0.2,0-0.3c-0.1,2-1.8,3-4.2,3c-2.1,0-4.1-1-5.4-2.5c-0.6-0.9-1.6-1.5-2.7-1.7c-1.5-0.1-2.7,1.1-2.7,2.5c0,0,0,0,0,0
				c0,0.1,0,0.2,0,0.3c0,0.1,0,0.2,0,0.2C182.7,82.5,183.8,81.4,185.4,81.4C185.3,81.4,185.3,81.4,185.4,81.4L185.4,81.4z"/>
			<path id="Path_1364" class="st5" d="M192.6,59.9c2.2,0,4.4,0.5,6.3,1.6c1.7,1,3.7,2.9,3.9,4.8c0-0.1,0-0.2,0-0.3
				c0-2.1-2.1-4.1-3.9-5.1c-1.9-1.1-4.1-1.6-6.3-1.6c-4.6,0.1-9.1,2.6-9.1,8.5c0,0.1,0,0.2,0,0.3C183.6,62.4,188.1,59.9,192.6,59.9
				L192.6,59.9z"/>
			<path id="Path_1365" class="st5" d="M123.4,82.3c0,0.1,0,0.2,0,0.3c0-1.6,1.3-2.8,2.9-2.7h0.2c3.5,0.3,1.4,5.4,6.2,5.4
				c2.9,0,4.1-1.8,4.1-5.4v-0.5c0,3.7-1.2,5.4-4.1,5.4c-4.9,0.1-2.8-5.1-6.2-5.3c-1.5-0.2-2.9,0.9-3.1,2.5c0,0,0,0,0,0
				C123.4,82,123.4,82.1,123.4,82.3L123.4,82.3z"/>
			<path id="Path_1366" class="st5" d="M168.1,59.8c-1.7,0-2.9,1.2-2.9,3.3v0.5c0-2.1,1.2-3.3,2.9-3.3s2.9,1.2,2.9,3.3v-0.5
				C171,61,169.8,59.8,168.1,59.8z"/>
			<path id="Path_1367" class="st5" d="M177.8,59.7c-2.1,0.1-3,1.4-3,4v0.5c0-2.5,0.9-3.9,3-4c1.5-0.2,2.8,0.8,3,2.3
				c0,0.2,0,0.4,0,0.5c0-0.1,0-0.2,0-0.3C180.8,60.9,179.9,59.7,177.8,59.7z"/>
			<path id="Path_1368" class="st5" d="M139.8,59.8c-1.8,0-2.9,1.2-2.9,3.3v0.5c0-2.1,1.1-3.3,2.9-3.3c1.8,0,2.9,1.2,2.9,3.3v-0.5
				C142.7,61,141.5,59.8,139.8,59.8z"/>
			<path id="Path_1369" class="st5" d="M79.8,59.9h8c6.9,0,10.4,3.4,10.6,8.2c0-0.1,0-0.2,0-0.2c0-5-3.5-8.5-10.6-8.5h-8
				c-1.5-0.1-2.8,1-2.9,2.5c0,0.1,0,0.2,0,0.3v0.5c-0.1-1.5,1.1-2.8,2.6-2.9H79.8z"/>
			<path id="Path_1370" class="st5" d="M89.7,71.4c-1.9,0.4-3.1,1.1-3.1,2.9c0,0.1,0,0.2,0,0.3c0.1-1.6,1.3-2.3,3.1-2.7
				s2.9-1.3,2.9-3.2c0-0.1,0-0.2,0-0.3C92.5,70.2,91.4,71.1,89.7,71.4z"/>
			<path id="Path_1371" class="st5" d="M88.5,85.5c3.6,0,5.5-1.2,5.5-3.5c0-0.1,0-0.2,0-0.3c-0.1,2.2-2,3.3-5.5,3.3h-5.9v0.5H88.5z"
				/>
		</g>
		<path id="Path_1372" class="st5" d="M94.7,74.3C94.7,74.2,94.7,74.2,94.7,74.3c0-0.1,0-0.1,0-0.1l0,0l-0.3,0.2
			c-0.1,0.1-0.1,0.2,0,0.2c0,0,0,0,0,0c0,0,0,0,0.1,0l0.3,0.1c3.1,1.1,5.2,4.1,5.2,7.4c0-0.1,0-0.2,0-0.3c0-0.9-0.1-1.8-0.4-2.6
			C98.8,76.9,97,75.1,94.7,74.3L94.7,74.3z"/>
	</g>
</g>
<rect x="19" y="47" class="st6" width="192" height="56"/>
</svg>
